<svg width="64" height="64" viewBox="0 0 64 64" xmlns="http://www.w3.org/2000/svg">
  <defs>
    <linearGradient id="g" x1="14%" y1="10%" x2="86%" y2="90%">
      <stop offset="0%" stop-color="#7C5DF7"/>
      <stop offset="100%" stop-color="#4C3AAE"/>
    </linearGradient>
  </defs>
  <rect width="64" height="64" rx="18" fill="url(#g)"/>
  <path d="M18.5 35.2c0-5.9 3.4-8.8 9.8-10.6 5-1.4 6.2-2.3 6.2-4.2 0-2.1-1.9-3.4-5.2-3.4-3.3 0-6 1.1-8.8 3.5l-4.3-4.5C20 12.3 24.7 10 29.9 10c8 0 12.9 3.6 12.9 9.8 0 5.7-3.7 8.5-10.4 10.3-4.7 1.3-5.8 2.3-5.8 4.2v.2h16.6v6.4H18.5v-5.7Z" fill="#FAF7FF"/>
  <path d="M33.6 47.8l3.6-5.6c2.7 2.1 5.7 3.2 8.7 3.2 3 0 4.9-1.2 4.9-3 0-1.5-1.1-2.4-5-3.2l-3.4-.7c-6-1.3-9.3-4.5-9.3-9.4 0-6.4 5.2-10.5 12.9-10.5 5 0 9.2 1.5 12.6 4.3l-3.5 5.7c-2.7-2-5.5-3-8.6-3-2.6 0-4.2 1-4.2 2.8 0 1.5 1.1 2.3 4.9 3.1l3.4.7c6.3 1.3 9.5 4.5 9.5 9.4 0 6.8-5.6 11-13.7 11-5.3 0-10.1-1.7-14.1-5.2Z" fill="#E4DCFF"/>
</svg>
